<svg xmlns="http://www.w3.org/2000/svg" width="340" height="2080" viewBox="0 0 340 2080">
  <g id="グループ_166" data-name="グループ 166" transform="translate(-1182 -1543)">
    <g id="グループ_165" data-name="グループ 165" transform="translate(230 -344)">
      <rect id="長方形_15" data-name="長方形 15" width="340" height="520" transform="translate(952 1887)" fill="none"/>
      <g id="スタンダードな人物ピクトグラム" transform="translate(865.976 1891)">
        <path id="パス_306" data-name="パス 306" d="M256,85.549a42.775,42.775,0,1,0-42.778-42.771A42.774,42.774,0,0,0,256,85.549Z" fill="#4b4b4b"/>
        <path id="パス_307" data-name="パス 307" d="M312.2,97.623H199.8c-20.725,0-43.274,22.549-43.274,43.282V284.673a18.766,18.766,0,1,0,37.533,0V166.468h8.651v320.88a24.652,24.652,0,0,0,49.3,0V301.138h7.964V487.349a24.652,24.652,0,0,0,49.3,0V166.469h8.668V284.674a18.759,18.759,0,1,0,37.517,0V140.9C355.47,120.172,332.922,97.623,312.2,97.623Z" fill="#4b4b4b"/>
      </g>
    </g>
    <g id="グループ_164" data-name="グループ 164" transform="translate(230 176)">
      <rect id="長方形_18" data-name="長方形 18" width="340" height="520" transform="translate(952 1887)" fill="none"/>
      <g id="人生オワタのピクトグラム" transform="translate(866.913 1891)">
        <path id="パス_308" data-name="パス 308" d="M256,89.6a42.37,42.37,0,1,0-42.37-42.37A42.37,42.37,0,0,0,256,89.6Z" fill="#4b4b4b"/>
        <path id="パス_309" data-name="パス 309" d="M407.4,3.659A18.6,18.6,0,0,0,381.39,7.513L331.726,74.524a66.881,66.881,0,0,1-53.72,27.043h-44a66.858,66.858,0,0,1-53.719-27.043L130.609,7.513A18.591,18.591,0,0,0,100.74,29.658l96.028,131.28a33.41,33.41,0,0,1,6.45,19.734v306.91a24.418,24.418,0,0,0,48.835,0V303.144h7.894V487.582a24.425,24.425,0,0,0,48.85,0V180.672a33.41,33.41,0,0,1,6.45-19.734l96.012-131.28A18.6,18.6,0,0,0,407.4,3.659Z" fill="#4b4b4b"/>
      </g>
    </g>
    <g id="グループ_162" data-name="グループ 162" transform="translate(230 1216)">
      <rect id="長方形_16" data-name="長方形 16" width="340" height="520" transform="translate(952 1887)" fill="none"/>
      <g id="手を差し出す人ピクト" transform="translate(898.112 1891)">
        <path id="パス_310" data-name="パス 310" d="M223.864,85.549a42.775,42.775,0,1,0-42.779-42.771A42.773,42.773,0,0,0,223.864,85.549Z" fill="#4b4b4b"/>
        <path id="パス_311" data-name="パス 311" d="M368.848,197.517h-34.8L323.334,140.9c-4.638-24.244-22.549-43.282-43.275-43.282H167.668c-20.726,0-43.274,22.549-43.274,43.282V284.673a18.766,18.766,0,1,0,37.533,0V166.468h8.651v320.88a24.652,24.652,0,0,0,49.3,0V301.138h7.964V487.349a24.652,24.652,0,0,0,49.3,0V166.469h8.668l7.644,48.944a23.209,23.209,0,0,0,22.932,19.63h52.454a18.763,18.763,0,0,0,0-37.526Z" fill="#4b4b4b"/>
      </g>
    </g>
    <g id="グループ_163" data-name="グループ 163" transform="translate(230 696)">
      <rect id="長方形_17" data-name="長方形 17" width="340" height="520" transform="translate(952 1887)" fill="none"/>
      <g id="片手をあげる人のピクトグラム" transform="translate(836.722 1890.999)">
        <path id="パス_312" data-name="パス 312" d="M286.191,89.6a42.37,42.37,0,1,0-42.37-42.37A42.37,42.37,0,0,0,286.191,89.6Z" fill="#4b4b4b"/>
        <path id="パス_313" data-name="パス 313" d="M341.845,101.568H264.2a66.856,66.856,0,0,1-53.718-27.043L160.8,7.514a18.592,18.592,0,0,0-29.87,22.145l96.028,131.28a33.412,33.412,0,0,1,6.45,19.734v306.91a24.418,24.418,0,0,0,48.836,0V303.144h7.894V487.583a24.417,24.417,0,0,0,48.835,0V169.753h8.57V286.835a18.59,18.59,0,0,0,37.179,0V144.43C384.722,123.9,362.378,101.568,341.845,101.568Z" fill="#4b4b4b"/>
      </g>
    </g>
  </g>
</svg>
