<svg xmlns="http://www.w3.org/2000/svg" xmlns:xlink="http://www.w3.org/1999/xlink" width="460" height="2080" viewBox="0 0 460 2080">
  <defs>
    <clipPath id="clip-path">
      <rect id="長方形_22" data-name="長方形 22" width="460" height="520" transform="translate(1132 1534)" fill="#fff" stroke="#707070" stroke-width="1"/>
    </clipPath>
  </defs>
  <g id="グループ_174" data-name="グループ 174" transform="translate(-1877 -1618)">
    <g id="グループ_173" data-name="グループ 173" transform="translate(-280 1654)">
      <rect id="長方形_21" data-name="長方形 21" width="460" height="520" transform="translate(2157 1524)" fill="none"/>
      <g id="頭のアイコン" transform="translate(2131.253 1527.997)">
        <path id="パス_318" data-name="パス 318" d="M475.606,295.5,434.2,207.722c.109-2.625.2-5.25.2-7.906C434.4,89.472,344.934,0,234.575,0S34.747,89.472,34.747,199.815a199.426,199.426,0,0,0,72.672,154.172v70.625a17.166,17.166,0,0,0,10.453,15.813l165.5,70.2a17.156,17.156,0,0,0,23.875-15.782V434.987A17.178,17.178,0,0,1,324.4,417.815h84.766a17.155,17.155,0,0,0,17.156-17.156V349.05A17.2,17.2,0,0,1,436,333.6l31.578-15.328A17.165,17.165,0,0,0,475.606,295.5Z" fill="#4b4b4b"/>
      </g>
    </g>
    <g id="グループ_172" data-name="グループ 172" transform="translate(705 614)">
      <rect id="長方形_20" data-name="長方形 20" width="460" height="520" transform="translate(1172 1524)" fill="none"/>
      <g id="頭のアイコン-2" data-name="頭のアイコン" transform="translate(1181 1528)">
        <path id="パス_318-2" data-name="パス 318" d="M36.394,295.5,77.8,207.722c-.109-2.625-.2-5.25-.2-7.906C77.6,89.472,167.066,0,277.425,0S477.253,89.472,477.253,199.815a199.426,199.426,0,0,1-72.672,154.172v70.625a17.166,17.166,0,0,1-10.453,15.813l-165.5,70.2a17.156,17.156,0,0,1-23.875-15.782V434.987A17.178,17.178,0,0,0,187.6,417.815H102.831a17.155,17.155,0,0,1-17.156-17.156V349.05A17.2,17.2,0,0,0,76,333.6L44.425,318.269A17.165,17.165,0,0,1,36.394,295.5Z" transform="translate(-34.747 -0.003)" fill="#4b4b4b"/>
      </g>
    </g>
    <g id="マスクグループ_1" data-name="マスクグループ 1" transform="translate(745 84)" clip-path="url(#clip-path)">
      <g id="メガネをかけた男性のアイコン素材" transform="translate(992.971 1544)">
        <path id="パス_317" data-name="パス 317" d="M677.609,671.524a128.976,128.976,0,0,0-12.865-31.542c-9.423-16.43-22-29.222-35.862-39.378a196.865,196.865,0,0,0-32.836-19.238c-16.966-8.056-34.373-14.209-50.462-20.141-16.113-5.932-30.906-11.693-42.551-18.358l-1.27-.733a83.253,83.253,0,0,1-11.206-7.764,48.808,48.808,0,0,1-11.474-13.281,43.009,43.009,0,0,1-5.322-17.162c-.489-4.834-.733-4.517-.708-9.375a202.616,202.616,0,0,1,4.345-40.086,154,154,0,0,0,20.068-29.491,320.753,320.753,0,0,0,18.163-41.5,80.408,80.408,0,0,0,11.4-6.348,81.659,81.659,0,0,0,23.388-24.388c6.739-10.668,12.182-23.925,15.868-40.281a61.072,61.072,0,0,0,1.514-13.5,61.791,61.791,0,0,0-5.859-26.049,70.761,70.761,0,0,0-9.595-15.063c1.928-7.129,4.3-16.723,6.372-27.953a300.744,300.744,0,0,0,5.273-54.025,200.348,200.348,0,0,0-3.564-38.817,144.019,144.019,0,0,0-8.814-28.613,106.606,106.606,0,0,0-26.977-37.742c-11.254-10.009-25.414-17.943-42.454-23.046a147.253,147.253,0,0,0-18.333-18.6,102.8,102.8,0,0,0-16.43-11.376A93.862,93.862,0,0,0,421.248,8a133.455,133.455,0,0,0-27.563-2.587c-13.06.048-26.8,1.319-41.965,2.808-5.737.586-10.571,1.294-14.721,2.026-6.225,1.123-10.889,2.3-14.623,3.028a45.073,45.073,0,0,1-5.126.83,32.3,32.3,0,0,1-4.956.342,58.04,58.04,0,0,1-8.74-.733,195.814,195.814,0,0,1-29.1-6.539c-3.979-1.2-7.422-2.392-10.107-3.419-1.319-.489-2.49-.977-3.442-1.367-.928-.391-1.636-.733-2.051-.928A13.507,13.507,0,0,0,252.655,0,14.817,14.817,0,0,0,248.8.489a22.5,22.5,0,0,0-2.319.806,20.8,20.8,0,0,0-3.223,1.661,54.342,54.342,0,0,0-5.3,3.637,127.505,127.505,0,0,0-10.3,9.032,171.51,171.51,0,0,0-16.8,18.774,118.9,118.9,0,0,0-7.495,10.962,78.57,78.57,0,0,0-5.811,11.767,313.424,313.424,0,0,0-16.088,55.905,257.278,257.278,0,0,0-4.419,47.337c0,23.607,3.3,43.626,6.445,60.519,0,.806.073,1.587.122,2.392.073,1.587.244,3.223.416,4.931.269,2.564.561,5.176.781,7.348.122,1.1.22,2.075.294,2.833.025.366.048.708.048.952l.025.244v1.539l3.125,13.818a71.1,71.1,0,0,0-11.353,16.332,60.514,60.514,0,0,0-5.151,41.209v-.025a138.178,138.178,0,0,0,9.57,28.735A89.7,89.7,0,0,0,202.7,370.638a77.746,77.746,0,0,0,19.751,12.842,319.83,319.83,0,0,0,18.163,41.453,152.1,152.1,0,0,0,20.068,29.491,203.484,203.484,0,0,1,4.345,40.159c0,4.858-.22,4.517-.733,9.35a45.52,45.52,0,0,1-3,12.4,42.69,42.69,0,0,1-9.912,14.526,77.315,77.315,0,0,1-16.626,12.182l-5.176,2.783c-5.542,2.833-11.621,5.517-18.09,8.154-14.916,6.054-31.933,11.743-49.216,18.627a279,279,0,0,0-38.523,18.407,157,157,0,0,0-26.66,19.505,122.8,122.8,0,0,0-30.541,43.089c-7.422,17.552-11.523,38.3-11.523,62.863a26.894,26.894,0,0,0,1.9,9.814,36.539,36.539,0,0,0,4.467,7.959,60.806,60.806,0,0,0,13.232,12.793c9.448,6.982,22.044,13.5,38.3,19.677,24.413,9.2,57.15,17.48,99.434,23.485s94.162,9.764,156.659,9.764c54.2,0,100.386-2.808,139.276-7.47a652.542,652.542,0,0,0,75.509-13.232,355.207,355.207,0,0,0,41.648-12.695,195.778,195.778,0,0,0,23.461-10.5,112.485,112.485,0,0,0,13.6-8.35,63.213,63.213,0,0,0,14.379-13.77,35.95,35.95,0,0,0,4.4-8.129,26.462,26.462,0,0,0,1.733-9.35A175.071,175.071,0,0,0,677.609,671.524ZM255.121,136.174c70.651,15.7,208.779-14.306,208.779-14.306s1.489,34.325,25.047,65.7C501.4,204.19,510.869,233.24,516.8,255.75c-.2-.048-.416-.048-.634-.1-3.49-.489-4.1-2.661-4.517-4.54-.88-4.223-4.834-5.493-11.157-6.348A292.888,292.888,0,0,0,450.13,243.1c-60.178,2.93-55.71,8.4-79.366,8.4-23.632,0-19.165-5.468-79.341-8.4a293.026,293.026,0,0,0-50.388,1.661c-6.3.855-10.254,2.123-11.132,6.348-.416,1.88-1.025,4.053-4.54,4.54h-.1C227.289,228.87,252.265,195.425,255.121,136.174Zm244.471,151.36c0,.317-.269,34.837-23.73,46.652a64.014,64.014,0,0,1-28.149,6.225c-10.742,0-20.58-2.442-28.417-7.031a37.277,37.277,0,0,1-17.357-22.363c-.684-2.247-1.319-4.54-1.9-6.739-1.88-6.739-6.884-25.341,3.736-33.567,6.836-5.347,28.075-8.715,48.387-8.715,18.505,0,37.328,2.539,42.845,8.3C498.638,274.058,500.054,280.87,499.591,287.534Zm-158.05,16.748c-.611,2.2-1.27,4.492-1.928,6.739a37.333,37.333,0,0,1-17.333,22.363c-7.861,4.59-17.7,7.031-28.441,7.031a64.041,64.041,0,0,1-28.149-6.225c-23.461-11.817-23.73-46.335-23.73-46.652-.464-6.665.952-13.476,4.59-17.235,5.517-5.762,24.339-8.3,42.845-8.3,20.311,0,41.551,3.369,48.387,8.715C348.4,278.941,343.4,297.545,341.541,304.282Zm1.612,368.585L259.808,557.955c1.05-.756,2.123-1.562,3.173-2.392a82.364,82.364,0,0,0,12.524-12.4l67.209,31.175-14.356,23.9,22.216,23.558Zm-58.128-145.5a71.436,71.436,0,0,0,5.322-20.751c.611-5.811.855-6.4.855-12.035a234.245,234.245,0,0,0-5.664-49.119l-.806-3.564-2.466-2.637c-6.348-6.714-12.474-15.259-18.6-26.708-6.128-11.4-12.231-25.61-18.529-43.332l-2.026-5.811-5.811-2.1a53.388,53.388,0,0,1-27.539-22.558c-4.883-7.739-9.3-18.066-12.451-32.055a34.552,34.552,0,0,1,3.026-23.705,47.06,47.06,0,0,1,8.618-11.817c6.006,9.082,10.962,16.284,12.768,18.09,1.953,1.953,3.345,1.709,4.223.048,1.147,12.865,6.47,41.77,31.566,55.1,31.688,16.821,78.927,10.521,94.966-26.927,7.275-16.894,7.373-33.422,18.285-33.422s11.035,16.527,18.285,33.422c16.063,37.45,63.327,43.748,94.966,26.927s31.888-58.441,31.888-61.37c0-1.709,1.783-2.955,4.223-2.955a3.993,3.993,0,0,0,2.319-.756c1.05,4.981,1.587,7.959,1.587,7.959s3.051-5.762,7.543-13.476a45.237,45.237,0,0,1,6.665,10.156,35.664,35.664,0,0,1,3.394,14.99,34.345,34.345,0,0,1-.88,7.739,113.4,113.4,0,0,1-7.764,23.388c-4.492,9.595-9.643,16.185-15.038,21.044a52.848,52.848,0,0,1-17.162,10.181l-5.786,2.1-2.051,5.786c-6.275,17.748-12.4,31.956-18.529,43.406-6.153,11.4-12.256,19.994-18.6,26.683l-2.514,2.661-.756,3.54a231.969,231.969,0,0,0-5.689,49.069c0,5.664.269,6.225.855,12.06a71.775,71.775,0,0,0,4.59,19.018c.122.269.244.537.366.83l-79.537,41.77ZM401.5,678.335l-8.2-56.541,22.216-23.558-14.4-24L461.9,542.282a68.218,68.218,0,0,0,5.372,6.153,90.633,90.633,0,0,0,11.231,9.717Z" transform="translate(0)" fill="#4b4b4b"/>
      </g>
    </g>
    <g id="マスクグループ_2" data-name="マスクグループ 2" transform="translate(745 1124)" clip-path="url(#clip-path)">
      <g id="メガネをかけた男性のアイコン素材-2" data-name="メガネをかけた男性のアイコン素材" transform="translate(992.971 1544)">
        <path id="パス_319" data-name="パス 319" d="M677.609,671.524a128.976,128.976,0,0,0-12.865-31.542c-9.423-16.43-22-29.222-35.862-39.378a196.865,196.865,0,0,0-32.836-19.238c-16.966-8.056-34.373-14.209-50.462-20.141-16.113-5.932-30.906-11.693-42.551-18.358l-1.27-.733a83.253,83.253,0,0,1-11.206-7.764,48.808,48.808,0,0,1-11.474-13.281,43.009,43.009,0,0,1-5.322-17.162c-.489-4.834-.733-4.517-.708-9.375a202.616,202.616,0,0,1,4.345-40.086,154,154,0,0,0,20.068-29.491,320.753,320.753,0,0,0,18.163-41.5,80.408,80.408,0,0,0,11.4-6.348,81.659,81.659,0,0,0,23.388-24.388c6.739-10.668,12.182-23.925,15.868-40.281a61.072,61.072,0,0,0,1.514-13.5,61.791,61.791,0,0,0-5.859-26.049,70.761,70.761,0,0,0-9.595-15.063c1.928-7.129,4.3-16.723,6.372-27.953a300.744,300.744,0,0,0,5.273-54.025,200.348,200.348,0,0,0-3.564-38.817,144.019,144.019,0,0,0-8.814-28.613,106.606,106.606,0,0,0-26.977-37.742c-11.254-10.009-25.414-17.943-42.454-23.046a147.253,147.253,0,0,0-18.333-18.6,102.8,102.8,0,0,0-16.43-11.376A93.862,93.862,0,0,0,421.248,8a133.455,133.455,0,0,0-27.563-2.587c-13.06.048-26.8,1.319-41.965,2.808-5.737.586-10.571,1.294-14.721,2.026-6.225,1.123-10.889,2.3-14.623,3.028a45.073,45.073,0,0,1-5.126.83,32.3,32.3,0,0,1-4.956.342,58.04,58.04,0,0,1-8.74-.733,195.814,195.814,0,0,1-29.1-6.539c-3.979-1.2-7.422-2.392-10.107-3.419-1.319-.489-2.49-.977-3.442-1.367-.928-.391-1.636-.733-2.051-.928A13.507,13.507,0,0,0,252.655,0,14.817,14.817,0,0,0,248.8.489a22.5,22.5,0,0,0-2.319.806,20.8,20.8,0,0,0-3.223,1.661,54.342,54.342,0,0,0-5.3,3.637,127.505,127.505,0,0,0-10.3,9.032,171.51,171.51,0,0,0-16.8,18.774,118.9,118.9,0,0,0-7.495,10.962,78.57,78.57,0,0,0-5.811,11.767,313.424,313.424,0,0,0-16.088,55.905,257.278,257.278,0,0,0-4.419,47.337c0,23.607,3.3,43.626,6.445,60.519,0,.806.073,1.587.122,2.392.073,1.587.244,3.223.416,4.931.269,2.564.561,5.176.781,7.348.122,1.1.22,2.075.294,2.833.025.366.048.708.048.952l.025.244v1.539l3.125,13.818a71.1,71.1,0,0,0-11.353,16.332,60.514,60.514,0,0,0-5.151,41.209v-.025a138.178,138.178,0,0,0,9.57,28.735A89.7,89.7,0,0,0,202.7,370.638a77.746,77.746,0,0,0,19.751,12.842,319.83,319.83,0,0,0,18.163,41.453,152.1,152.1,0,0,0,20.068,29.491,203.484,203.484,0,0,1,4.345,40.159c0,4.858-.22,4.517-.733,9.35a45.52,45.52,0,0,1-3,12.4,42.69,42.69,0,0,1-9.912,14.526,77.315,77.315,0,0,1-16.626,12.182l-5.176,2.783c-5.542,2.833-11.621,5.517-18.09,8.154-14.916,6.054-31.933,11.743-49.216,18.627a279,279,0,0,0-38.523,18.407,157,157,0,0,0-26.66,19.505,122.8,122.8,0,0,0-30.541,43.089c-7.422,17.552-11.523,38.3-11.523,62.863a26.894,26.894,0,0,0,1.9,9.814,36.539,36.539,0,0,0,4.467,7.959,60.806,60.806,0,0,0,13.232,12.793c9.448,6.982,22.044,13.5,38.3,19.677,24.413,9.2,57.15,17.48,99.434,23.485s94.162,9.764,156.659,9.764c54.2,0,100.386-2.808,139.276-7.47a652.542,652.542,0,0,0,75.509-13.232,355.207,355.207,0,0,0,41.648-12.695,195.778,195.778,0,0,0,23.461-10.5,112.485,112.485,0,0,0,13.6-8.35,63.213,63.213,0,0,0,14.379-13.77,35.95,35.95,0,0,0,4.4-8.129,26.462,26.462,0,0,0,1.733-9.35A175.071,175.071,0,0,0,677.609,671.524Z" transform="translate(0)" fill="#4b4b4b"/>
      </g>
    </g>
  </g>
</svg>
