<svg xmlns="http://www.w3.org/2000/svg" width="420" height="2080" viewBox="0 0 420 2080">
  <g id="グループ_171" data-name="グループ 171" transform="translate(-1621 -1664)">
    <g id="グループ_167" data-name="グループ 167">
      <rect id="長方形_19" data-name="長方形 19" width="420" height="520" transform="translate(1621 1664)" fill="none"/>
      <g id="めがねおじさん" transform="translate(1575.449 1668)">
        <path id="パス_314" data-name="パス 314" d="M448.454,282.366l-7.608-.126s-6.673-20.6-45.131-22.122a456.919,456.919,0,0,0-89.258,5.354c-21.42,3.474-30.148,17.479-34.607,17.4l-12.753-.2-12.752.2c-4.459.083-13.186-13.921-34.607-17.4a456.9,456.9,0,0,0-89.254-5.354c-38.458,1.521-45.131,22.122-45.131,22.122l-7.608.126a13.856,13.856,0,0,0-13.63,14.089l.238,14.882a13.851,13.851,0,0,0,9.09,12.786l4.961,1.812s8.3,26.5,21.208,48.73c18.364,31.618,51.7,34.056,86.577,30.473,48.592-5,58.68-51.109,62.714-64.788C248.762,313.684,259.1,316.7,259.1,316.7s10.335-3.015,18.194,23.651c4.034,13.679,14.118,59.787,62.714,64.788,34.883,3.583,68.212,1.144,86.577-30.473,12.912-22.232,21.2-48.73,21.2-48.73l4.961-1.812a13.861,13.861,0,0,0,9.1-12.786l.234-14.882A13.849,13.849,0,0,0,448.454,282.366ZM214.961,338.954a177.773,177.773,0,0,1-8.155,18.33c-6.414,12.636-15.822,21.831-31.217,23.342-6.372.627-11.934.969-17,1.053-29.484.484-39-8.352-44.9-17.964-9.161-14.966-13.37-28.128-14.957-38.733-4.509-30.082,24.227-35.118,46.917-34.065,18.966.876,41.03.626,59.5,5.119,8.657,2.105,14.031,8.293,14.87,14.866C221.241,320.447,219.228,327.521,214.961,338.954Zm204.5-13.972c-1.586,10.606-5.8,23.768-14.957,38.733-5.9,9.612-15.408,18.448-44.9,17.964-5.069-.084-10.631-.426-16.995-1.053-15.4-1.511-24.808-10.706-31.221-23.342a178.638,178.638,0,0,1-8.155-18.33c-4.272-11.433-6.28-18.507-5.057-28.052.83-6.573,6.208-12.761,14.866-14.866,18.468-4.493,40.532-4.242,59.5-5.119C395.231,289.865,423.968,294.9,419.458,324.982Z" fill="#ef3030"/>
        <path id="パス_315" data-name="パス 315" d="M239.167,149.923c60.066,0,86.18-12.051,100.754-25.956,17.446,54.993,61.707,87.1,110.186,94.37,34.207-79.822-5.7-182.442-82.665-176.738C356.039,10.24,219.216-21.11,133.7,18.792S25.375,158.475,76.685,241.136C73.833,206.929,142.251,149.923,239.167,149.923Z" fill="#4b4b4b"/>
        <path id="パス_316" data-name="パス 316" d="M338.142,454.936c-37.213-32.261-81.872-14.882-81.872-14.882s-44.663-17.379-81.88,14.882C146.71,478.929,169.43,512,169.43,512a78.914,78.914,0,0,1,44.663-19.842c24.811-2.488,42.178-17.37,42.178-29.772,0,12.4,17.358,27.284,42.174,29.772A78.914,78.914,0,0,1,343.107,512S365.826,478.929,338.142,454.936Z" fill="#4b4b4b"/>
      </g>
    </g>
    <g id="グループ_168" data-name="グループ 168" transform="translate(0 520)">
      <rect id="長方形_19-2" data-name="長方形 19" width="420" height="520" transform="translate(1621 1664)" fill="none"/>
      <g id="めがねおじさん-2" data-name="めがねおじさん" transform="translate(1575.449 1668)">
        <path id="パス_314-2" data-name="パス 314" d="M448.454,282.366l-7.608-.126s-6.673-20.6-45.131-22.122a456.919,456.919,0,0,0-89.258,5.354c-21.42,3.474-30.148,17.479-34.607,17.4l-12.753-.2-12.752.2c-4.459.083-13.186-13.921-34.607-17.4a456.9,456.9,0,0,0-89.254-5.354c-38.458,1.521-45.131,22.122-45.131,22.122l-7.608.126a13.856,13.856,0,0,0-13.63,14.089l.238,14.882a13.851,13.851,0,0,0,9.09,12.786l4.961,1.812s8.3,26.5,21.208,48.73c18.364,31.618,51.7,34.056,86.577,30.473,48.592-5,58.68-51.109,62.714-64.788C248.762,313.684,259.1,316.7,259.1,316.7s10.335-3.015,18.194,23.651c4.034,13.679,14.118,59.787,62.714,64.788,34.883,3.583,68.212,1.144,86.577-30.473,12.912-22.232,21.2-48.73,21.2-48.73l4.961-1.812a13.861,13.861,0,0,0,9.1-12.786l.234-14.882A13.849,13.849,0,0,0,448.454,282.366ZM214.961,338.954a177.773,177.773,0,0,1-8.155,18.33c-6.414,12.636-15.822,21.831-31.217,23.342-6.372.627-11.934.969-17,1.053-29.484.484-39-8.352-44.9-17.964-9.161-14.966-13.37-28.128-14.957-38.733-4.509-30.082,24.227-35.118,46.917-34.065,18.966.876,41.03.626,59.5,5.119,8.657,2.105,14.031,8.293,14.87,14.866C221.241,320.447,219.228,327.521,214.961,338.954Zm204.5-13.972c-1.586,10.606-5.8,23.768-14.957,38.733-5.9,9.612-15.408,18.448-44.9,17.964-5.069-.084-10.631-.426-16.995-1.053-15.4-1.511-24.808-10.706-31.221-23.342a178.638,178.638,0,0,1-8.155-18.33c-4.272-11.433-6.28-18.507-5.057-28.052.83-6.573,6.208-12.761,14.866-14.866,18.468-4.493,40.532-4.242,59.5-5.119C395.231,289.865,423.968,294.9,419.458,324.982Z" fill="#4b4b4b"/>
        <path id="パス_315-2" data-name="パス 315" d="M239.167,149.923c60.066,0,86.18-12.051,100.754-25.956,17.446,54.993,61.707,87.1,110.186,94.37,34.207-79.822-5.7-182.442-82.665-176.738C356.039,10.24,219.216-21.11,133.7,18.792S25.375,158.475,76.685,241.136C73.833,206.929,142.251,149.923,239.167,149.923Z" fill="#c89631"/>
        <path id="パス_316-2" data-name="パス 316" d="M338.142,454.936c-37.213-32.261-81.872-14.882-81.872-14.882s-44.663-17.379-81.88,14.882C146.71,478.929,169.43,512,169.43,512a78.914,78.914,0,0,1,44.663-19.842c24.811-2.488,42.178-17.37,42.178-29.772,0,12.4,17.358,27.284,42.174,29.772A78.914,78.914,0,0,1,343.107,512S365.826,478.929,338.142,454.936Z" fill="#c89631"/>
      </g>
    </g>
    <g id="グループ_169" data-name="グループ 169" transform="translate(0 1040)">
      <rect id="長方形_19-3" data-name="長方形 19" width="420" height="520" transform="translate(1621 1664)" fill="none"/>
      <g id="めがねおじさん-3" data-name="めがねおじさん" transform="translate(1575.449 1668)">
        <path id="パス_314-3" data-name="パス 314" d="M448.454,282.366l-7.608-.126s-6.673-20.6-45.131-22.122a456.919,456.919,0,0,0-89.258,5.354c-21.42,3.474-30.148,17.479-34.607,17.4l-12.753-.2-12.752.2c-4.459.083-13.186-13.921-34.607-17.4a456.9,456.9,0,0,0-89.254-5.354c-38.458,1.521-45.131,22.122-45.131,22.122l-7.608.126a13.856,13.856,0,0,0-13.63,14.089l.238,14.882a13.851,13.851,0,0,0,9.09,12.786l4.961,1.812s8.3,26.5,21.208,48.73c18.364,31.618,51.7,34.056,86.577,30.473,48.592-5,58.68-51.109,62.714-64.788C248.762,313.684,259.1,316.7,259.1,316.7s10.335-3.015,18.194,23.651c4.034,13.679,14.118,59.787,62.714,64.788,34.883,3.583,68.212,1.144,86.577-30.473,12.912-22.232,21.2-48.73,21.2-48.73l4.961-1.812a13.861,13.861,0,0,0,9.1-12.786l.234-14.882A13.849,13.849,0,0,0,448.454,282.366ZM214.961,338.954a177.773,177.773,0,0,1-8.155,18.33c-6.414,12.636-15.822,21.831-31.217,23.342-6.372.627-11.934.969-17,1.053-29.484.484-39-8.352-44.9-17.964-9.161-14.966-13.37-28.128-14.957-38.733-4.509-30.082,24.227-35.118,46.917-34.065,18.966.876,41.03.626,59.5,5.119,8.657,2.105,14.031,8.293,14.87,14.866C221.241,320.447,219.228,327.521,214.961,338.954Zm204.5-13.972c-1.586,10.606-5.8,23.768-14.957,38.733-5.9,9.612-15.408,18.448-44.9,17.964-5.069-.084-10.631-.426-16.995-1.053-15.4-1.511-24.808-10.706-31.221-23.342a178.638,178.638,0,0,1-8.155-18.33c-4.272-11.433-6.28-18.507-5.057-28.052.83-6.573,6.208-12.761,14.866-14.866,18.468-4.493,40.532-4.242,59.5-5.119C395.231,289.865,423.968,294.9,419.458,324.982Z" fill="#0b41ae"/>
        <path id="パス_315-3" data-name="パス 315" d="M239.167,149.923c60.066,0,86.18-12.051,100.754-25.956,17.446,54.993,61.707,87.1,110.186,94.37,34.207-79.822-5.7-182.442-82.665-176.738C356.039,10.24,219.216-21.11,133.7,18.792S25.375,158.475,76.685,241.136C73.833,206.929,142.251,149.923,239.167,149.923Z" fill="#aaa"/>
        <path id="パス_316-3" data-name="パス 316" d="M338.142,454.936c-37.213-32.261-81.872-14.882-81.872-14.882s-44.663-17.379-81.88,14.882C146.71,478.929,169.43,512,169.43,512a78.914,78.914,0,0,1,44.663-19.842c24.811-2.488,42.178-17.37,42.178-29.772,0,12.4,17.358,27.284,42.174,29.772A78.914,78.914,0,0,1,343.107,512S365.826,478.929,338.142,454.936Z" fill="#4b4b4b"/>
      </g>
    </g>
    <g id="グループ_170" data-name="グループ 170" transform="translate(0 1560)">
      <rect id="長方形_19-4" data-name="長方形 19" width="420" height="520" transform="translate(1621 1664)" fill="none"/>
      <g id="めがねおじさん-4" data-name="めがねおじさん" transform="translate(1575.449 1668)">
        <path id="パス_314-4" data-name="パス 314" d="M448.454,282.366l-7.608-.126s-6.673-20.6-45.131-22.122a456.919,456.919,0,0,0-89.258,5.354c-21.42,3.474-30.148,17.479-34.607,17.4l-12.753-.2-12.752.2c-4.459.083-13.186-13.921-34.607-17.4a456.9,456.9,0,0,0-89.254-5.354c-38.458,1.521-45.131,22.122-45.131,22.122l-7.608.126a13.856,13.856,0,0,0-13.63,14.089l.238,14.882a13.851,13.851,0,0,0,9.09,12.786l4.961,1.812s8.3,26.5,21.208,48.73c18.364,31.618,51.7,34.056,86.577,30.473,48.592-5,58.68-51.109,62.714-64.788C248.762,313.684,259.1,316.7,259.1,316.7s10.335-3.015,18.194,23.651c4.034,13.679,14.118,59.787,62.714,64.788,34.883,3.583,68.212,1.144,86.577-30.473,12.912-22.232,21.2-48.73,21.2-48.73l4.961-1.812a13.861,13.861,0,0,0,9.1-12.786l.234-14.882A13.849,13.849,0,0,0,448.454,282.366ZM214.961,338.954a177.773,177.773,0,0,1-8.155,18.33c-6.414,12.636-15.822,21.831-31.217,23.342-6.372.627-11.934.969-17,1.053-29.484.484-39-8.352-44.9-17.964-9.161-14.966-13.37-28.128-14.957-38.733-4.509-30.082,24.227-35.118,46.917-34.065,18.966.876,41.03.626,59.5,5.119,8.657,2.105,14.031,8.293,14.87,14.866C221.241,320.447,219.228,327.521,214.961,338.954Zm204.5-13.972c-1.586,10.606-5.8,23.768-14.957,38.733-5.9,9.612-15.408,18.448-44.9,17.964-5.069-.084-10.631-.426-16.995-1.053-15.4-1.511-24.808-10.706-31.221-23.342a178.638,178.638,0,0,1-8.155-18.33c-4.272-11.433-6.28-18.507-5.057-28.052.83-6.573,6.208-12.761,14.866-14.866,18.468-4.493,40.532-4.242,59.5-5.119C395.231,289.865,423.968,294.9,419.458,324.982Z" fill="#bf5d11"/>
        <path id="パス_315-4" data-name="パス 315" d="M239.167,149.923c60.066,0,86.18-12.051,100.754-25.956,17.446,54.993,61.707,87.1,110.186,94.37,34.207-79.822-5.7-182.442-82.665-176.738C356.039,10.24,219.216-21.11,133.7,18.792S25.375,158.475,76.685,241.136C73.833,206.929,142.251,149.923,239.167,149.923Z" fill="#f9adba"/>
        <path id="パス_316-4" data-name="パス 316" d="M338.142,454.936c-37.213-32.261-81.872-14.882-81.872-14.882s-44.663-17.379-81.88,14.882C146.71,478.929,169.43,512,169.43,512a78.914,78.914,0,0,1,44.663-19.842c24.811-2.488,42.178-17.37,42.178-29.772,0,12.4,17.358,27.284,42.174,29.772A78.914,78.914,0,0,1,343.107,512S365.826,478.929,338.142,454.936Z" fill="#df4267"/>
      </g>
    </g>
  </g>
</svg>
